<svg xmlns="http://www.w3.org/2000/svg" viewBox="0 0 132.02 39.77"><defs><style>.cls-1{fill:#e60013;}</style></defs><title>Logo2</title><g id="Layer_2" data-name="Layer 2"><g id="圖層_1" data-name="圖層 1"><path class="cls-1" d="M2.08,30.27l.44.8H2.8a3.06,3.06,0,0,1-.16-.42l1.19-.58a4.43,4.43,0,0,0,.46,1H4.6l-.06-.09q1-.63,1.81-1.09l.52.94-.41.26.73-.13a5,5,0,0,1-.32-.62L8,29.72a4.35,4.35,0,0,0,.61,1l.87-.08.16,1-1,.1c0,.1,0,.2.05.3L9.4,32l.14.9L8.82,33l.07.34.81,0,0,.86-.64,0c0,.06,0,.12,0,.16l.74-.06.15.93q-1.2.09-2.41.24a5,5,0,0,1,.67.14c.57.22.87.52.9.92a1,1,0,0,1-.58.93l0,0,1.4.17-.1,1.25Q8,38.64,6.29,38.48q-1.56.61-3.84,1.29l-.5-1.19,1.29-.36-.8-.06.1-1-.36.08-.34-1.07a23.53,23.53,0,0,1,2.36-.53l-1.66,0a1.31,1.31,0,0,0,0,.16l-1.42.26q-.33-2-.59-3.7l0,0L0,31.51Q1.09,30.79,2.08,30.27ZM2,32.18c0,.12,0,.25.06.38l.81-.1,0-.29Zm.2,1.27,0,.2.81,0,0-.26Zm.17,1,0,.27h.81l0-.28Zm1,2.54q1.45.07,2.88.21a5.12,5.12,0,0,0,1.41-.65c0-.09-.51-.09-1.51,0A27.39,27.39,0,0,0,3.36,37Zm1.8-1.48.38,0c-.17-1.31-.33-2.51-.46-3.6L5,31.7v.45H4.15l0,.18.59-.05.15.89-.61,0c0,.13,0,.25.06.36H5v.86h-.5l0,.27h.6Zm1.39-3.44c0,.08,0,.17,0,.25l.72-.11c0-.1,0-.18-.05-.27Zm.15,1.16v.17l.79,0,0-.25Zm.12,1,0,.35.84-.11c0-.09,0-.18-.05-.26Z"/><path class="cls-1" d="M10.79,32.06l.57,0q-.11-.71-.19-1.35l1.62-.3c.07.54.15,1.08.22,1.64l.46,0,.12-1.43q1.45,0,2.85,0c-.1-.44-.16-.8-.2-1.08l1.42-.26q.11.62.31,1.37l.9,0q-.33-.32-.76-.67L19,29a16.59,16.59,0,0,1,1.27,1.13l-.64.77v1.39l-1.16,0c.12.39.25.78.39,1.17l.29-.46,1.34.72q-.47.77-.87,1.58c.31.66.69,1.38,1.12,2.15l-1.37.84a12.39,12.39,0,0,1-.64-1.09q-.21.48-.41,1l-1.13-.68-.08.32-1.46-.14a6.82,6.82,0,0,0,.25-2.09,2.19,2.19,0,0,0-.2-.92.38.38,0,0,0-.26-.15c0,1.23,0,2.48.11,3.76L14,38.17l-.06-1.32a10.68,10.68,0,0,1-2.27.85l-.53-1.49c.26-.07.52-.15.76-.24-.12-.85-.22-1.66-.32-2.43l-.8,0Zm3.08,3.19q0-1.57.07-3.06h-.36l0,1.39-.31,0q.11.86.23,1.78a4,4,0,0,0,.38-.2Zm3.48.94q.25-.51.5-1-.52-1.42-1-3l-1.34,0c0,.32,0,.64,0,1l.19,0a1.28,1.28,0,0,1,1.1.36A2.49,2.49,0,0,1,17.3,35l0,.45A5.64,5.64,0,0,1,17.35,36.19Z"/><path class="cls-1" d="M27,28.24l1.62.25a5.28,5.28,0,0,0-.33.77l1.48-.12L30,30.44q-1.83.14-3.63.36l0,.22c.91-.11,1.85-.21,2.8-.28L29.47,32q-1.41.11-2.8.28l0,.24q1.69-.24,3.47-.38l.23,1.39q-2.24.17-4.47.52l-.2.47q2.36-.32,4.91-.52l.28,1.41-1.49.13a6.67,6.67,0,0,1,1,.89L29.3,37.72a9.44,9.44,0,0,0-2.13-1.53l.45-.46q-1.24.15-2.49.34-.36,1-.7,2l-1.66-.44q.2-.64.4-1.23l-1.26.22-.28-1.4,2.13-.39.16-.39-2,.43-.22-1.37q1.66-.42,3.42-.71c0-.09,0-.18,0-.28q-1.39.22-2.78.48L22,31.72c.89-.18,1.82-.34,2.76-.48,0-.08,0-.16-.05-.24q-1.56.2-3.15.46l-.21-1.3L23,29.91a5,5,0,0,1-.35-.62l1.53-.79a4.86,4.86,0,0,0,.75,1.13l1.69-.19A5.25,5.25,0,0,1,27,28.24Z"/><path class="cls-1" d="M40.54,28.67l.29,1.62c-.76.06-1.53.13-2.3.22a8.54,8.54,0,0,0,.4,1.43,6.5,6.5,0,0,0,1.32,2.43,3.51,3.51,0,0,0,1.21.8l-.66,1.58a4.69,4.69,0,0,1-2.34-1.83A9.92,9.92,0,0,1,37.21,32q-.16-.58-.28-1.28-2.38.32-4.76.76l-.28-1.61q2.29-.46,4.79-.77-.1-.7-.17-1.48l1.63-.09q.06.74.14,1.38l.81-.08-.72-.53.86-1a4.17,4.17,0,0,1,1.31,1l-.41.48Zm-3.76,2.77L37.05,33c-.52,0-1,.09-1.48.15q.1.64.21,1.35c.6-.09,1.2-.16,1.78-.22l.27,1.57a30.39,30.39,0,0,0-5.18.9l-.29-1.57q.92-.22,1.8-.4l-.22-1.38-1.24.26-.27-1.53A30.28,30.28,0,0,1,36.77,31.43Z"/><path class="cls-1" d="M46.31,27.08l.22,1c-.58,0-1.13.1-1.64.17a.81.81,0,0,1,0,.14l.23,0a2.15,2.15,0,0,1,.94.11.72.72,0,0,1,.44.63.85.85,0,0,1-.45.7,20.33,20.33,0,0,1-3.42,1.82l-.48-.92c.39-.14.76-.28,1.1-.42l-.43-.27-.3.26-.67-.9a13.29,13.29,0,0,1,1.62-1.35l.21.29q-.11-.7-.2-1.29l1.17-.21c0,.12,0,.24.06.37C45.26,27.18,45.79,27.12,46.31,27.08Zm.53,2.51.26.46.78.08-.32-.29.36-.27-.67-.07.24-1.12c.6,0,1.16.08,1.7.15l.5-.45a.15.15,0,0,0-.19-.16,15.82,15.82,0,0,0-2.45.52l-.38-1.16a16,16,0,0,1,3-.55,1.52,1.52,0,0,1,.92.21,1,1,0,0,1,.43.76,1.25,1.25,0,0,1-.4.92l-.12.14.73.19L51,30.12c-.52-.12-1-.23-1.54-.32l-.55.48q1.38.19,2.72.48L51.53,32q-2.16-.45-4.3-.73a3.25,3.25,0,0,0,.18.31l.17,0a3.36,3.36,0,0,1,2,.25,1,1,0,0,1,.49.77l0,.34a1.57,1.57,0,0,1-.12.81l.28,0c.41.1.62.3.64.61a.78.78,0,0,1-.05.37L52,34.55l0,1.36c-1,.07-1.81.11-2.57.11a5.59,5.59,0,0,1-.61-.05,13.18,13.18,0,0,1-2.42.38,3.6,3.6,0,0,1-2-.29,1.64,1.64,0,0,1-.67-1.35,10.27,10.27,0,0,1,.06-2l-1.11.62-.57-1.05Q44.53,30.93,46.84,29.58Zm-3-.13a4,4,0,0,1,.55.39l.69-.33c.23-.11.33-.19.33-.23s-.16-.07-.47,0S44.26,29.36,43.89,29.46ZM45,34.6v.09a.84.84,0,0,0,.34.69,1.68,1.68,0,0,0,1,.14l.48,0a.83.83,0,0,1-.48-.61.93.93,0,0,1,0-.25Q45.68,34.64,45,34.6ZM45,32.88V33c.94-.12,1.87-.21,2.8-.29l.09.64c-1,.08-2,.19-2.85.31a16.38,16.38,0,0,0,2.34,0,2.68,2.68,0,0,0,1.13-.2.58.58,0,0,0,.13-.49.52.52,0,0,0-.2-.45,2,2,0,0,0-.86,0A20.09,20.09,0,0,0,45,32.88Zm.32-1.06.72-.12L46,31.48Zm3.18,2.68a4.36,4.36,0,0,0-.7.1c-.1,0-.15.11-.14.17s.13,0,.38.07a6.6,6.6,0,0,0,.85,0h.41a.24.24,0,0,0,.12-.2c0-.08-.09-.13-.24-.16A4.72,4.72,0,0,0,48.54,34.5Z"/><path class="cls-1" d="M57.79,28l.16.93-.2,0q0,2.35.12,4.86c0-.17.09-.33.14-.49l.84.22a11.36,11.36,0,0,0-.35,1.3l-.59-.16c0,.22,0,.44,0,.65l-1.14,0q-.12-1.49-.16-2.92a20.2,20.2,0,0,0-2.14.32l-.15-1,.29-.06c0-.76,0-1.49,0-2.21l-.31,0a48.4,48.4,0,0,0,0,5.58H53a43,43,0,0,1,0-6.53l-.29.05-.22-1.12c1.27-.25,2.59-.47,3.94-.66a2.75,2.75,0,0,1-.16-.34l1.43-.72a4.1,4.1,0,0,0,.44.85q1.63-.19,3.34-.32l.2,1.12L60,27.55,61,27.7l-.17.34h.92V29H60.51l-.06.19h.49a1.31,1.31,0,0,1,.89.34,1.44,1.44,0,0,1,.31.93v.18a1.29,1.29,0,0,1-.09.54,1.06,1.06,0,0,1-.79.57,8.92,8.92,0,0,1-1.09.13l-.33,0a3.23,3.23,0,0,1-1.34-.12,1.19,1.19,0,0,1-.67-1.15,3.89,3.89,0,0,1,.35-1.31l.48.09.37-.09.08-.32H58l0-.95,1.35,0c.06-.15.13-.31.21-.47q-2.63.27-5.26.72a1.93,1.93,0,0,1,0,.23C55.49,28.38,56.63,28.21,57.79,28Zm-3.31,4.8,1.91-.07,0,.74-.54,0,0,.24h.56l0,.73-.43,0c0,.06,0,.13,0,.19l.44,0,.15.72a12,12,0,0,0-2,.33l-.14-.73.51-.12L55,34.5l-.48,0,.07-.73h.27l0-.24-.37,0Zm1.27-1.33c.29,0,.57-.08.86-.1,0-.75,0-1.48,0-2.21l-.84.15a1.93,1.93,0,0,0,0,.22l.62-.06.14.73c-.26,0-.51,0-.76.09a1.26,1.26,0,0,0,0,.18l.61-.07.14.74c-.24,0-.49,0-.74.09C55.75,31.3,55.75,31.38,55.75,31.46Zm6,.39.16.94q-1.95.15-3.58.44l-.15-.93Q60,32,61.8,31.86Zm-2.74,1.37,1.13.16a1.46,1.46,0,0,0-.27.79.21.21,0,0,0,.06.15.34.34,0,0,0,.24,0,4.63,4.63,0,0,0,.59-.1,4.8,4.8,0,0,0-.73-.64l.53-.53a2.64,2.64,0,0,1,.6.45L61.8,33a2.74,2.74,0,0,1,.72.81l-.57.61a5.07,5.07,0,0,0-.5-.57l-.36.39.17,0,.24.88a8.27,8.27,0,0,1-1.33.27,1.8,1.8,0,0,1-1-.13.79.79,0,0,1-.39-.55A2.61,2.61,0,0,1,59.06,33.23ZM60,30.08h-.06c-.05.22-.1.45-.14.67L59,30.56c0-.12,0-.23.08-.34l-.14,0a.85.85,0,0,0,0,.27c0,.24.11.39.27.44a2,2,0,0,0,.91.07,4.7,4.7,0,0,0,.55-.07.45.45,0,0,0,.31-.16.46.46,0,0,0,.05-.25.75.75,0,0,0-.08-.33.25.25,0,0,0-.12-.09l-.15.67-.74-.2c0-.19.08-.37.12-.53Z"/><rect class="cls-1" x="8.95" y="12.36" width="5.35" height="1.41"/><rect class="cls-1" x="14.3" y="9.84" width="5.56" height="1.57"/><polygon class="cls-1" points="21.07 24.32 10.3 25.09 10.3 22.83 21.07 22.47 21.07 24.32"/><polygon class="cls-1" points="9.79 13.06 10.86 23.22 14.12 23.22 13.43 13.06 9.79 13.06"/><polygon class="cls-1" points="15.08 10.91 16.8 23.22 20.11 23.22 19.04 10.91 15.08 10.91"/><rect class="cls-1" x="9.38" y="5.35" width="0.41" height="1.93"/><rect class="cls-1" x="13.73" y="4.07" width="0.39" height="1.85"/><rect class="cls-1" x="11.95" y="9.06" width="2.34" height="0.14"/><rect class="cls-1" x="15.48" y="4.78" width="2.53" height="0.57"/><rect class="cls-1" x="13.82" y="6.46" width="2.19" height="0.57"/><rect class="cls-1" x="15.28" y="7.43" width="2.19" height="0.39"/><rect class="cls-1" x="14.73" y="8.67" width="1.89" height="0.39"/><rect class="cls-1" x="17.06" y="8.47" width="1.89" height="0.39"/><rect class="cls-1" x="21.37" y="5.06" width="0.32" height="1.04"/><polygon class="cls-1" points="13.93 4.57 9.58 5.9 9.58 6.85 13.93 5.58 13.93 4.57"/><polygon class="cls-1" points="11.62 5.92 12.49 9.13 13.73 9.13 12.68 5.58 11.62 5.92"/><polygon class="cls-1" points="14.44 6.85 15.08 8.77 16.38 8.77 15.41 6.74 14.44 6.85"/><polygon class="cls-1" points="16.26 5.07 17.47 8.67 18.75 8.67 17.5 5.19 16.26 5.07"/><path class="cls-1" d="M33.38,7.76l-8.24-.48-.48-1-5.24.14V8.13l1.15-.05,1.12,17.33-1,.27v1.61l7.06-.43.05-1.77-1.42-.21-.67-6.1L33,20.12Zm-3,9.79-4.49-.48L25,8.77l5.35.43Z"/><polygon class="cls-1" points="25.78 3.8 45.63 4.05 45.63 6.46 25.78 6.31 25.78 3.8"/><polygon class="cls-1" points="34.13 2.3 35.09 24.72 34.13 24.72 34.13 26.16 41.62 26.16 41.62 24.72 39.67 24.72 38.25 2.3 34.13 2.3"/><path class="cls-1" d="M47.52,7.62c-3.44,0-6.57,3.8-7,8.49s2.07,8.1,5.49,8.49c4.19.48,6.57-3.8,7-8.49S51,7.62,47.52,7.62Zm1,9c-.11,1.36-.77,2.61-1.92,2.47-.94-.12-1.63-1.11-1.51-2.47S46,14.2,47,14.2,48.61,15.3,48.5,16.67Z"/><polygon class="cls-1" points="18.4 2.3 21.44 2.3 21.44 3.22 21.24 3.22 21.24 2.95 19.92 2.95 19.92 3.98 20.85 3.98 20.85 3.82 21.17 3.82 21.17 4.84 20.88 4.84 20.88 4.59 19.92 4.59 19.92 5.33 21.2 5.33 21.2 5.15 21.53 5.15 21.53 6.16 21.29 6.16 21.29 6.02 18.64 6.02 18.64 5.58 18.94 5.58 18.94 2.67 18.4 2.67 18.4 2.3"/><polygon class="cls-1" points="90.69 5.63 104.56 5.63 104.56 10.92 103.64 10.92 103.64 9.38 97.63 9.38 97.63 15.36 101.87 15.36 101.87 14.41 103.32 14.41 103.32 20.28 101.98 20.28 101.98 18.85 97.63 18.85 97.63 23.14 103.43 23.14 103.43 22.08 104.94 22.08 104.94 27.95 103.86 27.95 103.86 27.11 91.82 27.11 91.82 24.6 93.16 24.6 93.16 7.77 90.69 7.77 90.69 5.63"/><polygon class="cls-1" points="49.86 5.13 58.58 4.23 58.58 5.88 57.51 5.88 59.59 16.67 60.5 1.45 59.65 1.45 59.59 0 67.94 0 67.94 1.98 67.24 1.98 68.74 22.04 70.19 6.46 77.14 9.2 76.71 11.02 74.89 10.65 72.59 26.16 74.09 26.64 74.09 28.46 63.5 28.03 63.5 27.12 64.62 26.16 63.98 3.42 62.05 21.13 62.59 21.51 62.48 23.86 54.3 23.97 54.46 21.35 56.17 21.29 52.42 6.69 50.18 6.64 49.86 5.13"/><polygon class="cls-1" points="75.56 12.14 82.54 12.14 86.34 24.18 85.22 10.91 83.13 10.91 83.13 9.31 91.53 9.31 91.53 11.07 90.62 11.07 90.89 28.46 92.66 28.94 92.66 30.6 82.28 30.6 82.22 28.84 84.04 28.84 80.4 14.23 80.24 23.33 81.15 23.43 81.15 25.73 74.57 25.73 74.57 23.27 76.23 23.27 76.39 13.43 75.53 13 75.56 12.14"/><path class="cls-1" d="M131,24.1l-3,0-9.74-9.82c1.28-1.79,2.26-4.64,2.3-9.21,0,0,0-5-11.33-3.45l-5.15,1.16v2h1.79l2.69,20.1h-1.3v1.75h7.12V24.72L113,24.59l-.85-7.47a6.18,6.18,0,0,0,2.67-.29l6.55,10-.81.89.81,2.33L132,28ZM111.56,13.4,110.13,5c8.1-.9,6.89,3.76,6.89,3.76A5.94,5.94,0,0,1,111.56,13.4Z"/></g></g></svg>