<svg xmlns="http://www.w3.org/2000/svg" viewBox="0 0 141.65 49.41"><defs><style>.cls-1{fill:#fff;}.cls-2{fill:#eb5b1c;}</style></defs><title>Logo</title><g id="Layer_2" data-name="Layer 2"><g id="圖層_1" data-name="圖層 1"><path class="cls-1" d="M6.89,35.09l.44.8h.28a3.06,3.06,0,0,1-.16-.42l1.19-.58a4.43,4.43,0,0,0,.46,1h.32l-.06-.09q1-.63,1.81-1.09l.52.94-.41.26.73-.13a5,5,0,0,1-.32-.62l1.13-.58a4.35,4.35,0,0,0,.61,1l.87-.08.16,1-1,.1c0,.1,0,.2.05.3l.73-.07.14.9-.71.06.07.34.81,0,0,.86-.64,0c0,.06,0,.12,0,.16l.74-.06.15.93q-1.2.09-2.41.24a5,5,0,0,1,.67.14c.57.22.87.52.9.92a1,1,0,0,1-.58.93l0,0,1.4.17-.1,1.25q-1.76-.23-3.52-.39-1.56.61-3.84,1.29l-.5-1.19L8.05,43,7.25,43l.1-1L7,42.1,6.65,41A23.53,23.53,0,0,1,9,40.5l-1.66,0a1.31,1.31,0,0,0,0,.16L6,40.95q-.33-2-.59-3.7l0,0-.52-.94Q5.91,35.61,6.89,35.09ZM6.77,37c0,.12,0,.25.06.38l.81-.1,0-.29ZM7,38.26l0,.2.81,0,0-.26Zm.17,1,0,.27H8l0-.28Zm1,2.54q1.45.07,2.88.21a5.12,5.12,0,0,0,1.41-.65c0-.09-.51-.09-1.51,0A27.39,27.39,0,0,0,8.18,41.83ZM10,40.35l.37,0c-.17-1.31-.33-2.51-.46-3.6l-.11-.19V37H9l0,.18.59-.05.15.89-.61,0c0,.13,0,.25.06.36h.67v.86h-.5l0,.27H10Zm1.39-3.44c0,.08,0,.17,0,.25l.72-.11c0-.1,0-.18-.05-.27Zm.15,1.16v.17l.79,0,0-.25Zm.12,1,0,.35.84-.11c0-.09,0-.18-.05-.26Z"/><path class="cls-1" d="M15.6,36.88l.57,0q-.11-.71-.19-1.35l1.62-.3c.07.54.15,1.08.22,1.64l.46,0,.12-1.43q1.45,0,2.85,0c-.1-.44-.16-.8-.2-1.08l1.42-.26q.11.62.31,1.37l.9,0q-.33-.32-.76-.67l.87-1a16.59,16.59,0,0,1,1.27,1.13l-.64.77V37.1l-1.16,0c.12.39.25.78.39,1.17l.29-.46,1.34.72q-.47.77-.87,1.58c.31.66.69,1.38,1.12,2.15l-1.37.84A12.39,12.39,0,0,1,23.54,42q-.21.48-.41,1L22,42.27l-.08.32-1.46-.14a6.82,6.82,0,0,0,.25-2.09,2.19,2.19,0,0,0-.2-.92.38.38,0,0,0-.26-.15c0,1.23,0,2.48.11,3.76L18.78,43l-.06-1.32a10.68,10.68,0,0,1-2.27.85L15.92,41c.26-.07.52-.15.76-.24-.12-.85-.22-1.66-.32-2.43l-.8,0Zm3.08,3.19q0-1.57.07-3.06h-.36l0,1.39-.31,0q.11.86.23,1.78a4,4,0,0,0,.38-.2Zm3.48.94q.25-.51.5-1-.52-1.42-1-3l-1.34,0c0,.32,0,.64,0,1l.19,0a1.28,1.28,0,0,1,1.1.36,2.49,2.49,0,0,1,.53,1.46l0,.45A5.64,5.64,0,0,1,22.16,41Z"/><path class="cls-1" d="M31.85,33.06l1.62.25a5.28,5.28,0,0,0-.33.77L34.62,34l.23,1.29q-1.83.14-3.63.36l0,.22c.91-.11,1.85-.21,2.8-.28l.22,1.27q-1.41.11-2.8.28l0,.24Q33.2,37.1,35,37l.23,1.39q-2.24.17-4.47.52l-.2.47q2.36-.32,4.91-.52l.28,1.41-1.49.13a6.67,6.67,0,0,1,1,.89l-1.16,1.29A9.44,9.44,0,0,0,32,41l.45-.46q-1.24.15-2.49.34-.36,1-.7,2l-1.66-.44q.2-.64.4-1.23l-1.26.22L26.43,40l2.13-.39.16-.39-2,.43-.22-1.37q1.66-.42,3.42-.71c0-.09,0-.18,0-.28q-1.39.22-2.78.48l-.22-1.25c.89-.18,1.82-.34,2.76-.48,0-.08,0-.16-.05-.24q-1.56.2-3.15.46L26.21,35l1.55-.24a5,5,0,0,1-.35-.62l1.53-.79a4.86,4.86,0,0,0,.75,1.13l1.69-.19A5.25,5.25,0,0,1,31.85,33.06Z"/><path class="cls-1" d="M45.35,33.49l.29,1.62c-.76.06-1.53.13-2.3.22a8.54,8.54,0,0,0,.4,1.43,6.5,6.5,0,0,0,1.32,2.43,3.51,3.51,0,0,0,1.21.8l-.66,1.58a4.69,4.69,0,0,1-2.34-1.83A9.92,9.92,0,0,1,42,36.79q-.16-.58-.28-1.28-2.38.32-4.76.76l-.28-1.61q2.29-.46,4.79-.77-.1-.7-.17-1.48L43,32.32q.06.74.14,1.38l.81-.08-.72-.53L44,32a4.17,4.17,0,0,1,1.31,1l-.41.48Zm-3.76,2.77.28,1.54c-.52,0-1,.09-1.48.15q.1.64.21,1.35c.6-.09,1.2-.16,1.78-.22l.27,1.57a30.39,30.39,0,0,0-5.18.9L37.18,40q.92-.22,1.8-.4l-.22-1.38-1.24.26-.27-1.53A30.28,30.28,0,0,1,41.58,36.25Z"/><path class="cls-1" d="M51.12,31.9l.22,1c-.58,0-1.13.1-1.64.17a.81.81,0,0,1,0,.14l.23,0a2.15,2.15,0,0,1,.94.11.72.72,0,0,1,.44.63.85.85,0,0,1-.45.7,20.33,20.33,0,0,1-3.42,1.82L47,35.58c.39-.14.76-.28,1.1-.42l-.43-.27-.3.26-.67-.9A13.29,13.29,0,0,1,48.3,32.9l.21.29q-.11-.7-.2-1.29l1.17-.21c0,.12,0,.24.06.37C50.07,32,50.6,31.94,51.12,31.9Zm.53,2.51.26.46.78.08-.32-.29.36-.27-.67-.07.24-1.12c.6,0,1.16.08,1.7.15l.5-.45a.15.15,0,0,0-.19-.16,15.82,15.82,0,0,0-2.45.52l-.38-1.16a16,16,0,0,1,3-.55,1.52,1.52,0,0,1,.92.21,1,1,0,0,1,.43.76,1.25,1.25,0,0,1-.4.92l-.12.14.73.19-.23,1.17c-.52-.12-1-.23-1.54-.32l-.55.48q1.38.19,2.72.48l-.12,1.21q-2.16-.45-4.3-.73a3.25,3.25,0,0,0,.18.31l.17,0a3.36,3.36,0,0,1,2,.25,1,1,0,0,1,.49.77l0,.34a1.57,1.57,0,0,1-.12.81l.28,0c.41.1.62.3.64.61a.78.78,0,0,1-.05.37l1.23-.16,0,1.36c-1,.07-1.81.11-2.57.11a5.59,5.59,0,0,1-.61-.05,13.18,13.18,0,0,1-2.42.38,3.6,3.6,0,0,1-2-.29,1.64,1.64,0,0,1-.67-1.35,10.26,10.26,0,0,1,.06-2l-1.11.62-.57-1.05Q49.34,35.75,51.66,34.4Zm-3-.13a4,4,0,0,1,.55.39l.69-.33c.23-.11.34-.19.33-.23s-.16-.07-.47,0S49.07,34.18,48.7,34.27Zm1.09,5.15v.09a.84.84,0,0,0,.34.69,1.68,1.68,0,0,0,1,.14l.48,0a.83.83,0,0,1-.48-.61.93.93,0,0,1,0-.25Q50.49,39.46,49.79,39.42Zm.06-1.72v.11c.94-.12,1.87-.21,2.8-.29l.09.64c-1,.08-2,.19-2.85.31a16.38,16.38,0,0,0,2.34,0,2.68,2.68,0,0,0,1.13-.2.58.58,0,0,0,.13-.49.52.52,0,0,0-.2-.45,2,2,0,0,0-.86,0A20.09,20.09,0,0,0,49.85,37.7Zm.32-1.06.72-.12-.11-.23Zm3.18,2.68a4.36,4.36,0,0,0-.7.1c-.1,0-.15.11-.14.17s.13,0,.38.07a6.6,6.6,0,0,0,.85,0h.41a.24.24,0,0,0,.12-.2c0-.08-.09-.13-.24-.16A4.72,4.72,0,0,0,53.35,39.32Z"/><path class="cls-1" d="M62.6,32.81l.17.93-.2,0q0,2.35.12,4.86c0-.17.09-.33.14-.49l.84.22a11.36,11.36,0,0,0-.35,1.3l-.59-.16c0,.22,0,.44,0,.65l-1.14,0q-.12-1.49-.17-2.92a20.22,20.22,0,0,0-2.14.32l-.15-1,.29-.06c0-.76,0-1.49,0-2.21l-.31,0a48.4,48.4,0,0,0,0,5.58H57.82a43,43,0,0,1,0-6.53l-.29.05-.22-1.12c1.27-.25,2.59-.47,3.94-.66a2.75,2.75,0,0,1-.16-.34l1.43-.72a4.09,4.09,0,0,0,.44.85q1.63-.19,3.34-.32l.2,1.12-1.76.16,1.06.15-.17.34h.92v.95H65.32l-.06.19h.49a1.31,1.31,0,0,1,.89.34,1.44,1.44,0,0,1,.31.93v.18a1.29,1.29,0,0,1-.09.54,1.06,1.06,0,0,1-.79.57,8.92,8.92,0,0,1-1.09.13l-.33,0a3.23,3.23,0,0,1-1.34-.12,1.19,1.19,0,0,1-.67-1.15A3.88,3.88,0,0,1,63,34.17l.48.09.37-.09.08-.32H62.86l0-.95,1.35,0c.06-.15.13-.31.21-.47q-2.63.27-5.26.72a1.93,1.93,0,0,1,0,.23Q60.86,33.13,62.6,32.81Zm-3.31,4.8,1.91-.07,0,.74-.54,0,0,.24h.56l0,.73-.43,0c0,.06,0,.13,0,.19l.44,0,.15.72a12,12,0,0,0-2,.33l-.14-.73.51-.12-.06-.31-.48,0,.07-.73h.27l0-.24-.37,0Zm1.27-1.33c.29,0,.57-.08.86-.1,0-.75,0-1.48,0-2.21l-.84.15a1.9,1.9,0,0,0,0,.22l.62-.06.14.73c-.26,0-.51,0-.76.09a1.26,1.26,0,0,0,0,.18l.61-.07.14.74c-.24,0-.49,0-.74.09C60.57,36.12,60.57,36.2,60.57,36.28Zm6,.39.16.94q-1.95.15-3.58.44L63,37.13Q64.82,36.81,66.61,36.68ZM63.87,38l1.13.16a1.46,1.46,0,0,0-.27.79.21.21,0,0,0,.06.15.34.34,0,0,0,.24,0,4.62,4.62,0,0,0,.59-.1,4.79,4.79,0,0,0-.73-.64l.53-.53a2.64,2.64,0,0,1,.6.45l.58-.58a2.74,2.74,0,0,1,.72.81l-.57.61a5.07,5.07,0,0,0-.5-.57l-.36.39.17,0,.24.88a8.27,8.27,0,0,1-1.33.27A1.8,1.8,0,0,1,64,40a.79.79,0,0,1-.39-.55A2.61,2.61,0,0,1,63.87,38Zm.92-3.15h-.06c-.05.22-.1.45-.14.67l-.74-.19c0-.12,0-.23.08-.34l-.14,0a.85.85,0,0,0,0,.27c0,.24.11.39.27.44a2,2,0,0,0,.91.07,4.7,4.7,0,0,0,.55-.07.45.45,0,0,0,.31-.16.46.46,0,0,0,.05-.25.75.75,0,0,0-.08-.33.25.25,0,0,0-.12-.09l-.15.67-.74-.2c0-.19.08-.37.12-.53Z"/><rect class="cls-1" x="13.76" y="17.18" width="5.35" height="1.41"/><rect class="cls-1" x="19.11" y="14.66" width="5.56" height="1.57"/><polygon class="cls-1" points="25.89 29.14 15.12 29.91 15.12 27.65 25.89 27.29 25.89 29.14"/><polygon class="cls-1" points="14.6 17.88 15.67 28.04 18.93 28.04 18.24 17.88 14.6 17.88"/><polygon class="cls-1" points="19.9 15.73 21.61 28.04 24.93 28.04 23.86 15.73 19.9 15.73"/><rect class="cls-1" x="14.19" y="10.17" width="0.41" height="1.93"/><rect class="cls-1" x="18.54" y="8.89" width="0.39" height="1.85"/><rect class="cls-1" x="16.77" y="13.88" width="2.34" height="0.14"/><rect class="cls-1" x="20.29" y="9.6" width="2.53" height="0.57"/><rect class="cls-1" x="18.63" y="11.27" width="2.19" height="0.57"/><rect class="cls-1" x="20.09" y="12.25" width="2.19" height="0.39"/><rect class="cls-1" x="19.54" y="13.49" width="1.89" height="0.39"/><rect class="cls-1" x="21.88" y="13.29" width="1.89" height="0.39"/><rect class="cls-1" x="26.18" y="9.88" width="0.32" height="1.04"/><polygon class="cls-1" points="18.74 9.39 14.39 10.72 14.39 11.67 18.74 10.4 18.74 9.39"/><polygon class="cls-1" points="16.44 10.74 17.3 13.95 18.54 13.95 17.49 10.4 16.44 10.74"/><polygon class="cls-1" points="19.25 11.67 19.9 13.59 21.19 13.59 20.22 11.56 19.25 11.67"/><polygon class="cls-1" points="21.07 9.88 22.29 13.49 23.56 13.49 22.32 10.01 21.07 9.88"/><path class="cls-1" d="M38.19,12.58,30,12.1l-.48-1-5.24.14V13l1.15-.05L26.5,30.23l-1,.27V32.1l7.06-.43.05-1.77-1.42-.21-.67-6.1,7.28,1.34Zm-3,9.79-4.49-.48-.86-8.29L35.2,14Z"/><polygon class="cls-1" points="30.6 8.62 50.44 8.87 50.44 11.28 30.6 11.13 30.6 8.62"/><polygon class="cls-1" points="38.94 7.12 39.91 29.54 38.94 29.54 38.94 30.98 46.43 30.98 46.43 29.54 44.48 29.54 43.06 7.12 38.94 7.12"/><path class="cls-1" d="M52.34,12.44c-3.44,0-6.57,3.8-7,8.49s2.07,8.1,5.49,8.49c4.19.48,6.57-3.8,7-8.49S55.78,12.44,52.34,12.44Zm1,9c-.11,1.36-.77,2.61-1.92,2.47-.94-.12-1.63-1.11-1.51-2.47S50.85,19,51.8,19,53.42,20.12,53.31,21.49Z"/><polygon class="cls-1" points="23.21 7.12 26.26 7.12 26.26 8.04 26.05 8.04 26.05 7.77 24.73 7.77 24.73 8.8 25.67 8.8 25.67 8.64 25.98 8.64 25.98 9.66 25.69 9.66 25.69 9.41 24.73 9.41 24.73 10.15 26.01 10.15 26.01 9.97 26.34 9.97 26.34 10.98 26.1 10.98 26.1 10.84 23.46 10.84 23.46 10.4 23.75 10.4 23.75 7.49 23.21 7.49 23.21 7.12"/><polygon class="cls-1" points="95.51 10.45 109.37 10.45 109.37 15.74 108.46 15.74 108.46 14.2 102.44 14.2 102.44 20.18 106.69 20.18 106.69 19.23 108.14 19.23 108.14 25.1 106.79 25.1 106.79 23.67 102.44 23.67 102.44 27.96 108.25 27.96 108.25 26.9 109.75 26.9 109.75 32.77 108.67 32.77 108.67 31.93 96.64 31.93 96.64 29.42 97.98 29.42 97.98 12.59 95.51 12.59 95.51 10.45"/><polygon class="cls-1" points="54.67 9.95 63.39 9.05 63.39 10.7 62.32 10.7 64.41 21.49 65.32 6.26 64.46 6.26 64.41 4.82 72.75 4.82 72.75 6.8 72.06 6.8 73.56 26.86 75 11.28 81.95 14.02 81.53 15.84 79.71 15.47 77.41 30.98 78.91 31.46 78.91 33.28 68.31 32.85 68.31 31.94 69.44 30.98 68.79 8.24 66.87 25.95 67.4 26.33 67.3 28.68 59.11 28.79 59.27 26.16 60.98 26.11 57.24 11.51 54.99 11.46 54.67 9.95"/><polygon class="cls-1" points="80.38 16.96 87.36 16.96 91.16 29 90.03 15.73 87.95 15.73 87.95 14.13 96.34 14.13 96.34 15.89 95.44 15.89 95.7 33.28 97.47 33.76 97.47 35.42 87.09 35.42 87.04 33.66 88.86 33.66 85.22 19.05 85.06 28.15 85.97 28.25 85.97 30.55 79.39 30.55 79.39 28.09 81.05 28.09 81.21 18.25 80.35 17.82 80.38 16.96"/><path class="cls-1" d="M7.26,49.41a4.81,4.81,0,0,1-4.44-2.94l-.5-1.19a4.84,4.84,0,0,1-.37-1.65,4.83,4.83,0,0,1-.75-1.9Q1,40.24.74,38.92L.6,38.67A4.84,4.84,0,0,1,2.17,32.3c.87-.57,1.71-1.07,2.48-1.48a4.85,4.85,0,0,1,2.24-.56h.29a4.84,4.84,0,0,1,2.36-.14,4.85,4.85,0,0,1,.75-.2V27.65A4.76,4.76,0,0,1,10.61,26l-.44-4.17a4.78,4.78,0,0,1-1.22-3.2V17.18a4.79,4.79,0,0,1,1-2.88,4.79,4.79,0,0,1-.53-2.2V10.17a4.82,4.82,0,0,1,4.82-4.82h.41a4.9,4.9,0,0,1,.64,0,4.82,4.82,0,0,1,3.31-1.33h.39l.53,0A4.81,4.81,0,0,1,23.21,2.3h3a4.81,4.81,0,0,1,3.55,1.56,4.93,4.93,0,0,1,.79-.06l4.8.06.06-.07A4.85,4.85,0,0,1,38.94,2.3h4.12A4.79,4.79,0,0,1,46.74,4l3.77,0a4.79,4.79,0,0,1,3.1,1.19,4.71,4.71,0,0,1,.58-.09l5.41-.56A4.82,4.82,0,0,1,64.41,0h8.35a4.82,4.82,0,0,1,4.82,4.82v2c0,.1,0,.2,0,.31l6.16,2.43A4.77,4.77,0,0,1,85,10.3a4.8,4.8,0,0,1,2.93-1h2.88a4.83,4.83,0,0,1,4.68-3.68h9a4.8,4.8,0,0,1,3.35-2.76L113,1.7l.39-.07a34.56,34.56,0,0,1,4.67-.35c12,0,12.15,8.22,12.15,8.57A25.69,25.69,0,0,1,129,18.1l5.93,6h1a4.83,4.83,0,0,1,4.6,3.65l1,3.94a4.82,4.82,0,0,1-3.8,5.91l-10.61,2a4.74,4.74,0,0,1-.88.08,4.82,4.82,0,0,1-4.55-3.24l-.25-.73a4.79,4.79,0,0,1-2.18.52h-6.11a4.81,4.81,0,0,1-3.37,1.39h-1.07a4.82,4.82,0,0,1-2.73-.85H102.1a4.83,4.83,0,0,1-4.63,3.5H87.09a4.79,4.79,0,0,1-4.68-3.65l-.17.17A4.8,4.8,0,0,1,78.9,38.1l-6.81-.27a4.82,4.82,0,0,1-1.24,4.06l-.34.36a4.82,4.82,0,0,1-2.92,2.26,13.14,13.14,0,0,1-2.12.41c-.33,0-.54,0-.74,0a7.06,7.06,0,0,1-1.08-.08,4.82,4.82,0,0,1-.88.08l-.72,0h-.11a7.42,7.42,0,0,0-1.28.2,4.8,4.8,0,0,1-2.07.06,4.78,4.78,0,0,1-1.39.32c-1,.08-2,.12-2.78.12H54a19.9,19.9,0,0,1-2.4.32c-.33,0-.64,0-.93,0a8.45,8.45,0,0,1-2.52-.35,4.84,4.84,0,0,1-4.1.47,9.38,9.38,0,0,1-1.46-.64,25.53,25.53,0,0,0-3.9.71,4.74,4.74,0,0,1-1.23.16l-.39,0a4.86,4.86,0,0,1-2.8,1h-.1a5,5,0,0,1-2.22-.5,4.82,4.82,0,0,1-4,.68l-1.34-.36a4.82,4.82,0,0,1-3.54.58,4.82,4.82,0,0,1-1.23-.16,4.84,4.84,0,0,1-1.54.25l-1.73-.05a4.83,4.83,0,0,1-1.21-.19,4.83,4.83,0,0,1-2.8.9,5,5,0,0,1-.58,0c-.79-.1-1.56-.19-2.31-.27-.91.32-1.94.66-3.07,1A4.79,4.79,0,0,1,7.26,49.41Z"/><path class="cls-1" d="M135.84,28.92l-3,0-9.74-9.82c1.28-1.79,2.26-4.64,2.3-9.21,0,0,0-5-11.33-3.45l-5.15,1.16v2h1.79l2.69,20.1h-1.3v1.75h7.12V29.54l-1.39-.13L117,21.94a6.18,6.18,0,0,0,2.67-.29l6.55,10-.81.89.81,2.33,10.61-2Zm-19.47-10.7-1.43-8.37c8.1-.9,6.89,3.76,6.89,3.76A5.94,5.94,0,0,1,116.37,18.22Z"/><path class="cls-2" d="M6.89,35.09l.44.8h.28a3.06,3.06,0,0,1-.16-.42l1.19-.58a4.43,4.43,0,0,0,.46,1h.32l-.06-.09q1-.63,1.81-1.09l.52.94-.41.26.73-.13a5,5,0,0,1-.32-.62l1.13-.58a4.35,4.35,0,0,0,.61,1l.87-.08.16,1-1,.1c0,.1,0,.2.05.3l.73-.07.14.9-.71.06.07.34.81,0,0,.86-.64,0c0,.06,0,.12,0,.16l.74-.06.15.93q-1.2.09-2.41.24a5,5,0,0,1,.67.14c.57.22.87.52.9.92a1,1,0,0,1-.58.93l0,0,1.4.17-.1,1.25q-1.76-.23-3.52-.39-1.56.61-3.84,1.29l-.5-1.19L8.05,43,7.25,43l.1-1L7,42.1,6.65,41A23.53,23.53,0,0,1,9,40.5l-1.66,0a1.31,1.31,0,0,0,0,.16L6,40.95q-.33-2-.59-3.7l0,0-.52-.94Q5.91,35.61,6.89,35.09ZM6.77,37c0,.12,0,.25.06.38l.81-.1,0-.29ZM7,38.26l0,.2.81,0,0-.26Zm.17,1,0,.27H8l0-.28Zm1,2.54q1.45.07,2.88.21a5.12,5.12,0,0,0,1.41-.65c0-.09-.51-.09-1.51,0A27.39,27.39,0,0,0,8.18,41.83ZM10,40.35l.37,0c-.17-1.31-.33-2.51-.46-3.6l-.11-.19V37H9l0,.18.59-.05.15.89-.61,0c0,.13,0,.25.06.36h.67v.86h-.5l0,.27H10Zm1.39-3.44c0,.08,0,.17,0,.25l.72-.11c0-.1,0-.18-.05-.27Zm.15,1.16v.17l.79,0,0-.25Zm.12,1,0,.35.84-.11c0-.09,0-.18-.05-.26Z"/><path class="cls-2" d="M15.6,36.88l.57,0q-.11-.71-.19-1.35l1.62-.3c.07.54.15,1.08.22,1.64l.46,0,.12-1.43q1.45,0,2.85,0c-.1-.44-.16-.8-.2-1.08l1.42-.26q.11.62.31,1.37l.9,0q-.33-.32-.76-.67l.87-1a16.59,16.59,0,0,1,1.27,1.13l-.64.77V37.1l-1.16,0c.12.39.25.78.39,1.17l.29-.46,1.34.72q-.47.77-.87,1.58c.31.66.69,1.38,1.12,2.15l-1.37.84A12.39,12.39,0,0,1,23.54,42q-.21.48-.41,1L22,42.27l-.08.32-1.46-.14a6.82,6.82,0,0,0,.25-2.09,2.19,2.19,0,0,0-.2-.92.38.38,0,0,0-.26-.15c0,1.23,0,2.48.11,3.76L18.78,43l-.06-1.32a10.68,10.68,0,0,1-2.27.85L15.92,41c.26-.07.52-.15.76-.24-.12-.85-.22-1.66-.32-2.43l-.8,0Zm3.08,3.19q0-1.57.07-3.06h-.36l0,1.39-.31,0q.11.86.23,1.78a4,4,0,0,0,.38-.2Zm3.48.94q.25-.51.5-1-.52-1.42-1-3l-1.34,0c0,.32,0,.64,0,1l.19,0a1.28,1.28,0,0,1,1.1.36,2.49,2.49,0,0,1,.53,1.46l0,.45A5.64,5.64,0,0,1,22.16,41Z"/><path class="cls-2" d="M31.85,33.06l1.62.25a5.28,5.28,0,0,0-.33.77L34.62,34l.23,1.29q-1.83.14-3.63.36l0,.22c.91-.11,1.85-.21,2.8-.28l.22,1.27q-1.41.11-2.8.28l0,.24Q33.2,37.1,35,37l.23,1.39q-2.24.17-4.47.52l-.2.47q2.36-.32,4.91-.52l.28,1.41-1.49.13a6.67,6.67,0,0,1,1,.89l-1.16,1.29A9.44,9.44,0,0,0,32,41l.45-.46q-1.24.15-2.49.34-.36,1-.7,2l-1.66-.44q.2-.64.4-1.23l-1.26.22L26.43,40l2.13-.39.16-.39-2,.43-.22-1.37q1.66-.42,3.42-.71c0-.09,0-.18,0-.28q-1.39.22-2.78.48l-.22-1.25c.89-.18,1.82-.34,2.76-.48,0-.08,0-.16-.05-.24q-1.56.2-3.15.46L26.21,35l1.55-.24a5,5,0,0,1-.35-.62l1.53-.79a4.86,4.86,0,0,0,.75,1.13l1.69-.19A5.25,5.25,0,0,1,31.85,33.06Z"/><path class="cls-2" d="M45.35,33.49l.29,1.62c-.76.06-1.53.13-2.3.22a8.54,8.54,0,0,0,.4,1.43,6.5,6.5,0,0,0,1.32,2.43,3.51,3.51,0,0,0,1.21.8l-.66,1.58a4.69,4.69,0,0,1-2.34-1.83A9.92,9.92,0,0,1,42,36.79q-.16-.58-.28-1.28-2.38.32-4.76.76l-.28-1.61q2.29-.46,4.79-.77-.1-.7-.17-1.48L43,32.32q.06.74.14,1.38l.81-.08-.72-.53L44,32a4.17,4.17,0,0,1,1.31,1l-.41.48Zm-3.76,2.77.28,1.54c-.52,0-1,.09-1.48.15q.1.64.21,1.35c.6-.09,1.2-.16,1.78-.22l.27,1.57a30.39,30.39,0,0,0-5.18.9L37.18,40q.92-.22,1.8-.4l-.22-1.38-1.24.26-.27-1.53A30.28,30.28,0,0,1,41.58,36.25Z"/><path class="cls-2" d="M51.12,31.9l.22,1c-.58,0-1.13.1-1.64.17a.81.81,0,0,1,0,.14l.23,0a2.15,2.15,0,0,1,.94.11.72.72,0,0,1,.44.63.85.85,0,0,1-.45.7,20.33,20.33,0,0,1-3.42,1.82L47,35.58c.39-.14.76-.28,1.1-.42l-.43-.27-.3.26-.67-.9A13.29,13.29,0,0,1,48.3,32.9l.21.29q-.11-.7-.2-1.29l1.17-.21c0,.12,0,.24.06.37C50.07,32,50.6,31.94,51.12,31.9Zm.53,2.51.26.46.78.08-.32-.29.36-.27-.67-.07.24-1.12c.6,0,1.16.08,1.7.15l.5-.45a.15.15,0,0,0-.19-.16,15.82,15.82,0,0,0-2.45.52l-.38-1.16a16,16,0,0,1,3-.55,1.52,1.52,0,0,1,.92.21,1,1,0,0,1,.43.76,1.25,1.25,0,0,1-.4.92l-.12.14.73.19-.23,1.17c-.52-.12-1-.23-1.54-.32l-.55.48q1.38.19,2.72.48l-.12,1.21q-2.16-.45-4.3-.73a3.25,3.25,0,0,0,.18.31l.17,0a3.36,3.36,0,0,1,2,.25,1,1,0,0,1,.49.77l0,.34a1.57,1.57,0,0,1-.12.81l.28,0c.41.1.62.3.64.61a.78.78,0,0,1-.05.37l1.23-.16,0,1.36c-1,.07-1.81.11-2.57.11a5.59,5.59,0,0,1-.61-.05,13.18,13.18,0,0,1-2.42.38,3.6,3.6,0,0,1-2-.29,1.64,1.64,0,0,1-.67-1.35,10.26,10.26,0,0,1,.06-2l-1.11.62-.57-1.05Q49.34,35.75,51.66,34.4Zm-3-.13a4,4,0,0,1,.55.39l.69-.33c.23-.11.34-.19.33-.23s-.16-.07-.47,0S49.07,34.18,48.7,34.27Zm1.09,5.15v.09a.84.84,0,0,0,.34.69,1.68,1.68,0,0,0,1,.14l.48,0a.83.83,0,0,1-.48-.61.93.93,0,0,1,0-.25Q50.49,39.46,49.79,39.42Zm.06-1.72v.11c.94-.12,1.87-.21,2.8-.29l.09.64c-1,.08-2,.19-2.85.31a16.38,16.38,0,0,0,2.34,0,2.68,2.68,0,0,0,1.13-.2.58.58,0,0,0,.13-.49.52.52,0,0,0-.2-.45,2,2,0,0,0-.86,0A20.09,20.09,0,0,0,49.85,37.7Zm.32-1.06.72-.12-.11-.23Zm3.18,2.68a4.36,4.36,0,0,0-.7.1c-.1,0-.15.11-.14.17s.13,0,.38.07a6.6,6.6,0,0,0,.85,0h.41a.24.24,0,0,0,.12-.2c0-.08-.09-.13-.24-.16A4.72,4.72,0,0,0,53.35,39.32Z"/><path class="cls-2" d="M62.6,32.81l.17.93-.2,0q0,2.35.12,4.86c0-.17.09-.33.14-.49l.84.22a11.36,11.36,0,0,0-.35,1.3l-.59-.16c0,.22,0,.44,0,.65l-1.14,0q-.12-1.49-.16-2.92a20.2,20.2,0,0,0-2.14.32l-.15-1,.29-.06c0-.76,0-1.49,0-2.21l-.31,0a48.4,48.4,0,0,0,0,5.58H57.82a43,43,0,0,1,0-6.53l-.29.05-.22-1.12c1.27-.25,2.59-.47,3.94-.66a2.75,2.75,0,0,1-.16-.34l1.43-.72a4.1,4.1,0,0,0,.44.85q1.63-.19,3.34-.32l.2,1.12-1.76.16,1.06.15-.17.34h.92v.95H65.32l-.06.19h.49a1.31,1.31,0,0,1,.89.34,1.44,1.44,0,0,1,.31.93v.18a1.29,1.29,0,0,1-.09.54,1.06,1.06,0,0,1-.79.57,8.92,8.92,0,0,1-1.09.13l-.33,0a3.23,3.23,0,0,1-1.34-.12,1.19,1.19,0,0,1-.67-1.15A3.88,3.88,0,0,1,63,34.17l.48.09.37-.09.08-.32H62.86l0-.95,1.35,0c.06-.15.13-.31.21-.47q-2.63.27-5.26.72a1.93,1.93,0,0,1,0,.23C60.3,33.2,61.44,33,62.6,32.81Zm-3.31,4.8,1.91-.07,0,.74-.54,0,0,.24h.56l0,.73-.43,0c0,.06,0,.13,0,.19l.44,0,.15.72a12,12,0,0,0-2,.33l-.14-.73.51-.12-.06-.31-.48,0,.07-.73h.27l0-.24-.37,0Zm1.27-1.33c.29,0,.57-.08.86-.1,0-.75,0-1.48,0-2.21l-.84.15a1.93,1.93,0,0,0,0,.22l.62-.06.14.73c-.26,0-.51,0-.76.09a1.26,1.26,0,0,0,0,.18l.61-.07.14.74c-.24,0-.49,0-.74.09C60.56,36.12,60.57,36.2,60.57,36.28Zm6,.39.16.94q-1.95.15-3.58.44L63,37.13Q64.82,36.81,66.61,36.68ZM63.87,38l1.13.16a1.46,1.46,0,0,0-.27.79.21.21,0,0,0,.06.15.34.34,0,0,0,.24,0,4.63,4.63,0,0,0,.59-.1,4.8,4.8,0,0,0-.73-.64l.53-.53a2.64,2.64,0,0,1,.6.45l.58-.58a2.74,2.74,0,0,1,.72.81l-.57.61a5.07,5.07,0,0,0-.5-.57l-.36.39.17,0,.24.88a8.27,8.27,0,0,1-1.33.27A1.8,1.8,0,0,1,64,40a.79.79,0,0,1-.39-.55A2.61,2.61,0,0,1,63.87,38Zm.92-3.15h-.06c-.05.22-.1.45-.14.67l-.74-.19c0-.12,0-.23.08-.34l-.14,0a.85.85,0,0,0,0,.27c0,.24.11.39.27.44a2,2,0,0,0,.91.07,4.7,4.7,0,0,0,.55-.07.45.45,0,0,0,.31-.16.46.46,0,0,0,.05-.25.75.75,0,0,0-.08-.33.25.25,0,0,0-.12-.09l-.15.67-.74-.2c0-.19.08-.37.12-.53Z"/><rect class="cls-2" x="13.76" y="17.18" width="5.35" height="1.41"/><rect class="cls-2" x="19.11" y="14.66" width="5.56" height="1.57"/><polygon class="cls-2" points="25.89 29.14 15.12 29.91 15.12 27.65 25.89 27.29 25.89 29.14"/><polygon class="cls-2" points="14.6 17.88 15.67 28.04 18.93 28.04 18.24 17.88 14.6 17.88"/><polygon class="cls-2" points="19.9 15.73 21.61 28.04 24.93 28.04 23.86 15.73 19.9 15.73"/><rect class="cls-2" x="14.19" y="10.17" width="0.41" height="1.93"/><rect class="cls-2" x="18.54" y="8.89" width="0.39" height="1.85"/><rect class="cls-2" x="16.77" y="13.88" width="2.34" height="0.14"/><rect class="cls-2" x="20.29" y="9.6" width="2.53" height="0.57"/><rect class="cls-2" x="18.63" y="11.27" width="2.19" height="0.57"/><rect class="cls-2" x="20.09" y="12.25" width="2.19" height="0.39"/><rect class="cls-2" x="19.54" y="13.49" width="1.89" height="0.39"/><rect class="cls-2" x="21.88" y="13.29" width="1.89" height="0.39"/><rect class="cls-2" x="26.18" y="9.88" width="0.32" height="1.04"/><polygon class="cls-2" points="18.74 9.39 14.39 10.72 14.39 11.67 18.74 10.4 18.74 9.39"/><polygon class="cls-2" points="16.44 10.74 17.3 13.95 18.54 13.95 17.49 10.4 16.44 10.74"/><polygon class="cls-2" points="19.25 11.67 19.9 13.59 21.19 13.59 20.22 11.56 19.25 11.67"/><polygon class="cls-2" points="21.07 9.88 22.29 13.49 23.56 13.49 22.32 10.01 21.07 9.88"/><path class="cls-2" d="M38.19,12.58,30,12.1l-.48-1-5.24.14V13l1.15-.05L26.5,30.23l-1,.27V32.1l7.06-.43.05-1.77-1.42-.21-.67-6.1,7.28,1.34Zm-3,9.79-4.49-.48-.86-8.29L35.2,14Z"/><polygon class="cls-2" points="30.6 8.62 50.44 8.87 50.44 11.28 30.6 11.13 30.6 8.62"/><polygon class="cls-2" points="38.94 7.12 39.91 29.54 38.94 29.54 38.94 30.98 46.43 30.98 46.43 29.54 44.48 29.54 43.06 7.12 38.94 7.12"/><path class="cls-2" d="M52.34,12.44c-3.44,0-6.57,3.8-7,8.49s2.07,8.1,5.49,8.49c4.19.48,6.57-3.8,7-8.49S55.78,12.44,52.34,12.44Zm1,9c-.11,1.36-.77,2.61-1.92,2.47-.94-.12-1.63-1.11-1.51-2.47S50.85,19,51.8,19,53.42,20.12,53.31,21.49Z"/><polygon class="cls-2" points="23.21 7.12 26.26 7.12 26.26 8.04 26.05 8.04 26.05 7.77 24.73 7.77 24.73 8.8 25.67 8.8 25.67 8.64 25.98 8.64 25.98 9.66 25.69 9.66 25.69 9.41 24.73 9.41 24.73 10.15 26.01 10.15 26.01 9.97 26.34 9.97 26.34 10.98 26.1 10.98 26.1 10.84 23.46 10.84 23.46 10.4 23.75 10.4 23.75 7.49 23.21 7.49 23.21 7.12"/><polygon class="cls-2" points="95.51 10.45 109.37 10.45 109.37 15.74 108.46 15.74 108.46 14.2 102.44 14.2 102.44 20.18 106.69 20.18 106.69 19.23 108.14 19.23 108.14 25.1 106.79 25.1 106.79 23.67 102.44 23.67 102.44 27.96 108.24 27.96 108.24 26.9 109.75 26.9 109.75 32.77 108.67 32.77 108.67 31.93 96.64 31.93 96.64 29.42 97.98 29.42 97.98 12.59 95.51 12.59 95.51 10.45"/><polygon class="cls-2" points="54.67 9.95 63.39 9.05 63.39 10.7 62.32 10.7 64.41 21.49 65.32 6.26 64.46 6.26 64.41 4.82 72.75 4.82 72.75 6.8 72.06 6.8 73.56 26.86 75 11.28 81.95 14.02 81.53 15.84 79.71 15.47 77.41 30.98 78.9 31.46 78.9 33.28 68.31 32.85 68.31 31.94 69.44 30.98 68.79 8.24 66.87 25.95 67.4 26.33 67.3 28.68 59.11 28.79 59.27 26.16 60.98 26.11 57.24 11.51 54.99 11.46 54.67 9.95"/><polygon class="cls-2" points="80.38 16.96 87.36 16.96 91.15 29 90.03 15.73 87.94 15.73 87.94 14.13 96.34 14.13 96.34 15.89 95.44 15.89 95.7 33.28 97.47 33.76 97.47 35.42 87.09 35.42 87.03 33.66 88.86 33.66 85.22 19.05 85.06 28.15 85.97 28.25 85.97 30.55 79.39 30.55 79.39 28.09 81.05 28.09 81.2 18.25 80.35 17.82 80.38 16.96"/><path class="cls-2" d="M135.84,28.92l-3,0-9.74-9.82c1.28-1.79,2.26-4.64,2.3-9.21,0,0,0-5-11.33-3.45l-5.15,1.16v2h1.79l2.69,20.1h-1.3v1.75h7.12V29.54l-1.39-.13L117,21.94a6.18,6.18,0,0,0,2.67-.29l6.55,10-.81.89.81,2.33,10.61-2Zm-19.47-10.7-1.43-8.37c8.1-.9,6.89,3.76,6.89,3.76A5.94,5.94,0,0,1,116.37,18.22Z"/></g></g></svg>